# xmcd
#
# Track frame offsets: 
#        150
#        15797
#        34486
#        51771
#        73611
#        87797
#        106212
#        121050
#        163260
#        182098
#        204529
#
# Disc length: 2865 seconds
#
# Revision: 0
# Processed by: cddbd v1.5.2PL0 Copyright (c) Steve Scherf et al.
# Submitted via: ExactAudioCopyFreeDBPlugin 1.0
#
DISCID=8a0b2f0b
DTITLE=Victory In Heaven - VIH
DYEAR=2001
DGENRE=Blues
TTITLE0=Message From The King
TTITLE1=Everything I Need
TTITLE2=Saved My Life
TTITLE3=Nothing Can Keep Me From You
TTITLE4=Livin' In The Light
TTITLE5=Everyday Will Be Like Sunday
TTITLE6=You Can't Take It With You
TTITLE7=Worried Life Blues
TTITLE8=This Dying Day
TTITLE9=He Set Me Free
TTITLE10=Victory In Heaven
EXTD=
EXTT0=
EXTT1=
EXTT2=
EXTT3=
EXTT4=
EXTT5=
EXTT6=
EXTT7=
EXTT8=
EXTT9=
EXTT10=
PLAYORDER=
